<svg id="svg" version="1.1" xmlns="http://www.w3.org/2000/svg" xmlns:xlink="http://www.w3.org/1999/xlink" width="400" height="239.76470588235293" viewBox="0, 0, 400,239.76470588235293"><g id="svgg"><path id="path0" d="M308.000 60.552 C 308.000 60.726,307.788 61.060,307.529 61.294 C 307.271 61.528,307.059 61.909,307.059 62.140 C 307.059 62.371,306.953 62.626,306.824 62.706 C 306.694 62.786,306.588 63.203,306.588 63.632 C 306.588 64.062,306.427 64.547,306.230 64.710 C 306.033 64.874,305.928 65.184,305.996 65.399 C 306.064 65.613,305.964 65.996,305.773 66.248 C 305.583 66.500,305.423 67.044,305.419 67.457 C 305.415 67.870,305.306 68.273,305.176 68.353 C 305.047 68.433,304.941 68.909,304.941 69.412 C 304.941 69.914,304.835 70.391,304.706 70.471 C 304.576 70.551,304.471 70.974,304.471 71.412 C 304.471 71.849,304.365 72.273,304.235 72.353 C 304.106 72.433,304.000 73.280,304.000 74.235 C 304.000 75.191,304.106 76.038,304.235 76.118 C 304.365 76.198,304.471 76.680,304.471 77.190 C 304.471 77.700,304.576 78.118,304.706 78.118 C 304.835 78.118,304.941 78.278,304.941 78.474 C 304.941 79.433,306.961 81.709,308.397 82.369 C 308.940 82.618,309.449 82.928,309.529 83.058 C 309.609 83.188,309.980 83.294,310.353 83.294 C 310.726 83.294,311.096 83.400,311.176 83.529 C 311.256 83.659,312.216 83.765,313.308 83.765 C 314.475 83.765,315.294 83.862,315.294 84.000 C 315.294 84.148,316.902 84.235,319.647 84.235 C 322.392 84.235,324.000 84.322,324.000 84.471 C 324.000 84.606,324.733 84.706,325.728 84.706 C 327.640 84.706,328.235 85.051,328.235 86.159 C 328.235 87.315,327.681 87.510,323.993 87.648 C 322.128 87.717,320.498 87.878,320.372 88.005 C 320.239 88.138,318.377 88.235,315.967 88.235 C 313.438 88.235,311.735 88.328,311.647 88.471 C 311.567 88.600,310.985 88.706,310.353 88.706 C 309.721 88.706,309.139 88.812,309.059 88.941 C 308.979 89.071,308.658 89.176,308.346 89.176 C 308.034 89.176,307.402 89.388,306.941 89.647 C 306.480 89.906,305.901 90.118,305.654 90.118 C 305.407 90.118,305.141 90.221,305.063 90.347 C 304.985 90.473,304.555 90.749,304.108 90.962 C 303.660 91.174,303.294 91.442,303.294 91.556 C 303.294 91.671,303.102 91.765,302.868 91.765 C 302.633 91.765,302.137 92.082,301.765 92.471 C 301.393 92.859,300.974 93.176,300.833 93.176 C 300.502 93.176,296.706 96.989,296.706 97.321 C 296.706 97.460,296.493 97.766,296.234 98.002 C 295.708 98.478,295.059 99.666,295.059 100.154 C 295.059 100.328,294.953 100.471,294.824 100.471 C 294.694 100.471,294.588 100.682,294.588 100.941 C 294.588 101.200,294.482 101.412,294.353 101.412 C 294.224 101.412,294.118 101.617,294.118 101.868 C 294.118 102.120,294.012 102.391,293.882 102.471 C 293.753 102.551,293.647 102.840,293.647 103.113 C 293.647 103.386,293.476 103.799,293.266 104.031 C 292.989 104.337,292.928 104.678,293.042 105.285 L 293.198 106.118 318.599 106.118 L 344.000 106.118 344.000 105.431 C 344.000 105.054,344.132 104.701,344.294 104.647 C 344.522 104.571,344.588 102.583,344.588 95.765 C 344.588 88.946,344.522 86.958,344.294 86.882 C 344.132 86.828,344.000 86.423,344.000 85.980 C 344.000 85.423,343.892 85.176,343.647 85.176 C 343.401 85.176,343.294 84.928,343.294 84.353 C 343.294 83.900,343.188 83.529,343.059 83.529 C 342.929 83.529,342.824 83.212,342.824 82.824 C 342.824 82.435,342.718 82.118,342.588 82.118 C 342.459 82.118,342.353 81.853,342.353 81.529 C 342.353 81.206,342.247 80.941,342.118 80.941 C 341.988 80.941,341.882 80.729,341.882 80.471 C 341.882 80.212,341.733 80.000,341.551 80.000 C 341.336 80.000,341.264 79.835,341.344 79.529 C 341.429 79.202,341.351 79.059,341.086 79.059 C 340.837 79.059,340.706 78.855,340.706 78.471 C 340.706 78.147,340.600 77.882,340.471 77.882 C 340.341 77.882,340.235 77.694,340.235 77.464 C 340.235 77.233,340.024 76.892,339.765 76.706 C 339.506 76.519,339.294 76.125,339.294 75.830 C 339.294 75.535,339.181 75.294,339.042 75.294 C 338.667 75.294,338.118 74.675,338.118 74.252 C 338.118 74.049,338.012 73.882,337.882 73.882 C 337.753 73.882,337.647 73.749,337.647 73.585 C 337.647 73.422,337.366 73.078,337.022 72.821 C 336.046 72.090,335.059 71.126,335.059 70.903 C 335.059 70.791,334.778 70.490,334.434 70.232 C 333.537 69.561,332.471 68.544,332.471 68.359 C 332.471 68.056,331.795 67.529,331.405 67.529 C 331.189 67.529,330.716 67.212,330.353 66.824 C 329.990 66.435,329.521 66.118,329.310 66.118 C 329.099 66.118,328.865 65.959,328.791 65.765 C 328.716 65.571,328.478 65.412,328.262 65.412 C 328.046 65.412,327.716 65.200,327.529 64.941 C 327.343 64.682,326.949 64.471,326.654 64.471 C 326.359 64.471,326.118 64.365,326.118 64.235 C 326.118 64.106,325.906 64.000,325.647 64.000 C 325.388 64.000,325.176 63.901,325.176 63.780 C 325.176 63.658,324.832 63.526,324.412 63.485 C 323.954 63.441,323.671 63.294,323.706 63.118 C 323.740 62.945,323.522 62.824,323.176 62.824 C 322.853 62.824,322.588 62.718,322.588 62.588 C 322.588 62.459,322.218 62.353,321.765 62.353 C 321.312 62.353,320.941 62.247,320.941 62.118 C 320.941 61.988,320.624 61.882,320.235 61.882 C 319.847 61.882,319.529 61.776,319.529 61.647 C 319.529 61.518,319.053 61.412,318.471 61.412 C 317.888 61.412,317.412 61.310,317.412 61.186 C 317.412 61.062,316.591 60.930,315.588 60.892 C 314.283 60.843,313.781 60.740,313.824 60.529 C 313.868 60.307,313.169 60.235,310.941 60.235 C 308.634 60.235,308.000 60.304,308.000 60.552 M282.294 83.460 C 282.585 83.516,283.062 83.516,283.353 83.460 C 283.644 83.404,283.406 83.358,282.824 83.358 C 282.241 83.358,282.003 83.404,282.294 83.460 M252.529 83.941 C 254.438 83.980,257.562 83.980,259.471 83.941 C 261.379 83.901,259.818 83.869,256.000 83.869 C 252.182 83.869,250.621 83.901,252.529 83.941 M260.176 88.412 C 262.926 88.449,267.426 88.449,270.176 88.412 C 272.926 88.374,270.676 88.343,265.176 88.343 C 259.676 88.343,257.426 88.374,260.176 88.412 M288.760 103.059 C 288.760 103.512,288.809 103.697,288.868 103.471 C 288.927 103.244,288.927 102.874,288.868 102.647 C 288.809 102.421,288.760 102.606,288.760 103.059 M161.103 114.307 L 160.471 114.967 160.471 155.908 L 160.471 196.849 161.246 197.601 L 162.022 198.353 165.669 198.353 L 169.316 198.353 170.188 197.461 L 171.059 196.568 171.059 155.860 L 171.059 115.151 170.283 114.399 L 169.507 113.647 165.621 113.647 L 161.735 113.647 161.103 114.307 M336.397 114.307 L 335.765 114.967 335.765 128.195 L 335.765 141.422 333.918 140.128 C 326.391 134.854,314.918 134.512,306.768 139.318 C 298.275 144.326,295.295 151.654,295.295 167.529 C 295.295 182.660,297.740 189.296,305.311 194.722 C 313.451 200.556,327.526 200.473,334.647 194.549 L 335.765 193.619 335.765 195.234 C 335.765 196.752,335.811 196.894,336.541 197.601 L 337.317 198.353 340.965 198.353 L 344.614 198.353 345.366 197.577 L 346.118 196.801 346.118 155.856 L 346.118 114.912 345.458 114.279 L 344.798 113.647 340.913 113.647 L 337.029 113.647 336.397 114.307 M120.471 116.490 C 106.358 118.289,97.439 127.964,94.894 144.235 C 94.354 147.684,94.269 166.164,94.775 169.882 C 97.608 190.695,109.808 200.814,130.253 199.308 C 139.237 198.647,146.160 195.901,152.760 190.383 C 154.736 188.731,154.816 189.161,151.787 185.131 C 148.466 180.712,148.107 180.587,145.149 182.816 C 132.189 192.581,114.666 190.802,108.627 179.108 C 105.777 173.590,105.295 170.487,105.294 157.647 C 105.294 143.845,106.162 139.695,110.250 133.967 C 116.739 124.873,131.689 123.809,143.813 131.576 C 145.524 132.672,145.688 132.729,146.724 132.573 L 147.821 132.409 150.059 128.999 C 152.797 124.827,152.784 125.256,150.235 123.403 C 142.570 117.830,131.014 115.146,120.471 116.490 M75.576 118.188 L 74.824 118.964 74.824 148.406 C 74.824 182.448,74.843 182.126,72.597 185.548 C 69.508 190.257,59.290 190.418,52.485 185.866 L 50.426 184.489 49.280 184.774 L 48.134 185.059 46.038 188.575 C 43.635 192.609,43.628 192.228,46.138 194.177 C 50.564 197.613,56.552 199.352,64.000 199.365 C 76.161 199.385,82.837 194.150,85.093 182.824 C 85.452 181.020,85.500 177.779,85.580 149.905 L 85.670 118.987 84.906 118.199 L 84.143 117.412 80.235 117.412 L 76.328 117.412 75.576 118.188 M199.652 136.262 C 188.187 137.932,180.777 145.751,179.077 157.975 C 178.611 161.324,178.751 175.060,179.282 178.153 C 181.612 191.712,190.663 199.064,205.017 199.057 C 218.768 199.051,227.852 192.057,230.450 179.475 C 231.832 172.780,231.532 159.131,229.871 153.176 C 226.421 140.812,214.444 134.108,199.652 136.262 M239.576 137.717 L 238.824 138.493 238.825 158.952 C 238.827 185.103,239.003 186.383,243.354 191.881 C 250.214 200.548,265.980 201.745,275.471 194.319 L 276.941 193.169 276.941 195.009 C 276.941 196.781,276.970 196.876,277.717 197.601 L 278.493 198.353 282.142 198.353 L 285.790 198.353 286.542 197.577 L 287.294 196.801 287.294 167.531 L 287.294 138.261 286.662 137.601 L 286.030 136.941 282.237 136.941 L 278.445 136.941 277.698 137.712 L 276.952 138.482 276.888 158.359 C 276.816 180.575,276.938 178.952,275.109 181.985 C 272.214 186.783,267.797 189.061,261.412 189.048 C 254.570 189.034,251.654 187.114,249.971 181.517 C 249.583 180.228,249.544 178.480,249.473 159.297 L 249.395 138.475 248.651 137.708 L 247.908 136.941 244.118 136.941 L 240.328 136.941 239.576 137.717 M325.106 146.236 C 329.964 147.640,334.504 152.107,335.511 156.477 C 335.935 158.320,335.838 176.842,335.392 179.010 C 334.017 185.692,328.833 189.294,320.588 189.294 C 312.584 189.294,307.673 185.027,306.243 176.831 C 305.736 173.920,305.730 161.168,306.236 158.270 C 307.927 148.574,315.805 143.550,325.106 146.236 M210.706 146.368 C 217.666 148.714,220.396 154.013,220.644 165.664 C 220.830 174.344,220.248 178.448,218.300 182.192 C 213.142 192.106,196.269 191.905,191.454 181.873 C 188.584 175.892,188.571 159.184,191.433 153.235 C 193.104 149.760,196.305 147.184,200.286 146.108 C 202.792 145.431,208.336 145.570,210.706 146.368 " stroke="none" fill="#453150" fill-rule="evenodd"></path><path id="path1" d="M304.149 60.294 C 303.922 60.844,303.637 61.478,303.515 61.703 C 303.394 61.927,303.294 62.273,303.294 62.471 C 303.294 62.668,303.188 63.040,303.059 63.297 C 302.929 63.554,302.718 63.975,302.588 64.232 C 302.459 64.489,302.353 64.840,302.353 65.012 C 302.353 65.183,302.088 65.872,301.765 66.543 C 301.441 67.214,301.176 67.915,301.176 68.103 C 301.176 68.290,301.071 68.508,300.941 68.588 C 300.812 68.668,300.706 68.919,300.706 69.145 C 300.706 69.627,299.410 72.263,298.647 73.331 C 298.356 73.739,298.118 74.140,298.118 74.223 C 298.118 74.698,294.064 78.731,292.182 80.129 C 290.469 81.402,286.089 83.529,285.182 83.529 C 284.936 83.529,284.668 83.635,284.588 83.765 C 284.498 83.911,282.277 84.000,278.706 84.000 C 275.135 84.000,272.914 84.089,272.824 84.235 C 272.730 84.387,268.443 84.471,260.735 84.471 C 248.159 84.471,246.981 84.559,245.824 85.589 C 243.639 87.533,248.116 87.991,269.339 87.997 C 277.269 87.999,281.671 88.083,281.765 88.235 C 281.845 88.365,282.276 88.471,282.723 88.471 C 283.170 88.471,283.720 88.565,283.944 88.680 C 284.169 88.795,284.852 89.128,285.463 89.419 C 286.644 89.982,288.376 91.656,288.986 92.824 C 289.966 94.701,290.000 94.881,290.000 98.259 C 290.000 100.637,289.914 101.710,289.706 101.918 C 289.544 102.079,289.412 102.555,289.412 102.974 C 289.412 103.394,289.306 103.802,289.176 103.882 C 289.047 103.962,288.941 104.263,288.941 104.550 C 288.941 104.837,288.776 105.307,288.575 105.595 L 288.209 106.118 290.457 106.118 L 292.706 106.118 292.706 105.173 C 292.706 104.654,292.799 104.045,292.913 103.820 C 293.027 103.596,293.331 102.935,293.589 102.353 C 294.516 100.260,295.174 99.030,295.941 97.960 C 296.232 97.554,296.471 97.152,296.471 97.067 C 296.471 96.554,302.170 91.529,302.751 91.529 C 302.880 91.529,303.178 91.317,303.413 91.057 C 303.929 90.487,305.091 89.882,305.669 89.882 C 305.901 89.882,306.155 89.776,306.235 89.647 C 306.315 89.518,306.586 89.412,306.837 89.412 C 307.089 89.412,307.294 89.306,307.294 89.176 C 307.294 89.047,307.560 88.941,307.886 88.941 C 308.211 88.941,308.661 88.847,308.886 88.731 C 309.694 88.316,312.190 88.017,316.184 87.857 C 318.421 87.768,320.306 87.605,320.375 87.495 C 320.443 87.384,322.001 87.291,323.837 87.287 C 327.367 87.279,328.000 87.111,328.000 86.187 C 328.000 85.320,327.265 84.941,325.584 84.941 C 324.728 84.941,323.977 84.859,323.915 84.759 C 323.853 84.658,321.861 84.544,319.489 84.505 C 317.117 84.466,315.141 84.337,315.098 84.217 C 315.055 84.098,314.135 84.000,313.053 84.000 C 311.972 84.000,311.021 83.894,310.941 83.765 C 310.861 83.635,310.600 83.529,310.361 83.529 C 309.104 83.529,305.176 80.581,305.176 79.638 C 305.176 79.449,305.071 79.294,304.941 79.294 C 304.812 79.294,304.706 79.100,304.706 78.863 C 304.706 78.625,304.630 78.356,304.538 78.263 C 303.787 77.513,303.559 73.460,304.149 71.364 C 304.360 70.614,304.583 69.602,304.644 69.116 C 304.705 68.630,304.850 68.174,304.966 68.102 C 305.082 68.031,305.176 67.659,305.176 67.277 C 305.176 66.895,305.268 66.398,305.380 66.173 C 305.722 65.489,306.164 64.157,306.297 63.417 C 306.366 63.032,306.671 62.270,306.976 61.725 C 307.652 60.513,307.667 60.235,307.059 60.235 C 306.800 60.235,306.588 60.129,306.588 60.000 C 306.588 59.871,306.324 59.765,306.000 59.765 C 305.676 59.765,305.412 59.659,305.412 59.529 C 305.412 58.846,304.525 59.383,304.149 60.294 " stroke="none" fill="#f9f8f7" fill-rule="evenodd"></path><path id="path2" d="M304.050 59.918 C 303.905 60.391,303.880 60.682,303.994 60.566 C 304.225 60.330,304.582 59.059,304.418 59.059 C 304.361 59.059,304.196 59.446,304.050 59.918 M307.245 61.125 L 306.842 62.000 307.303 61.445 C 307.557 61.139,307.765 60.742,307.765 60.562 C 307.765 60.078,307.688 60.161,307.245 61.125 M303.341 61.694 C 303.186 61.849,303.059 62.164,303.059 62.393 C 303.059 62.622,302.847 63.186,302.588 63.647 C 302.329 64.108,302.118 64.746,302.118 65.066 C 302.118 65.386,302.012 65.647,301.882 65.647 C 301.753 65.647,301.647 65.853,301.647 66.104 C 301.647 66.355,301.541 66.626,301.412 66.706 C 301.282 66.786,301.182 67.030,301.189 67.249 C 301.203 67.702,302.353 65.492,302.353 65.012 C 302.353 64.708,302.459 64.445,303.022 63.356 C 303.172 63.067,303.294 62.638,303.294 62.403 C 303.294 62.168,303.421 61.849,303.576 61.694 C 303.732 61.539,303.806 61.412,303.741 61.412 C 303.676 61.412,303.496 61.539,303.341 61.694 M305.679 65.457 C 305.661 65.805,305.541 66.155,305.412 66.235 C 305.282 66.315,305.176 66.724,305.176 67.143 C 305.176 67.563,305.062 68.020,304.923 68.160 C 304.783 68.299,304.714 68.717,304.770 69.089 L 304.871 69.765 304.906 69.014 C 304.925 68.601,305.047 68.198,305.176 68.118 C 305.306 68.038,305.412 67.629,305.412 67.210 C 305.412 66.790,305.527 66.332,305.667 66.192 C 305.807 66.051,305.875 65.686,305.817 65.380 C 305.718 64.859,305.709 64.864,305.679 65.457 M300.685 68.617 C 300.535 68.989,300.330 69.506,300.231 69.765 C 299.921 70.569,298.826 72.795,298.437 73.412 C 298.199 73.789,298.264 73.750,298.620 73.301 C 299.320 72.418,300.706 69.678,300.706 69.178 C 300.706 68.970,300.831 68.675,300.984 68.522 C 301.137 68.368,301.194 68.175,301.111 68.091 C 301.027 68.008,300.836 68.244,300.685 68.617 M304.027 71.687 C 304.012 71.838,303.931 72.155,303.848 72.393 C 303.730 72.727,303.761 72.763,303.987 72.554 C 304.148 72.406,304.229 72.089,304.167 71.849 C 304.105 71.608,304.042 71.535,304.027 71.687 M295.030 77.232 C 293.396 78.884,291.888 80.235,291.677 80.235 C 291.466 80.235,291.294 80.330,291.294 80.446 C 291.294 80.562,290.386 81.100,289.275 81.643 C 288.165 82.185,287.301 82.674,287.356 82.729 C 288.038 83.411,294.136 78.862,297.264 75.337 C 298.989 73.394,297.981 74.249,295.030 77.232 M304.412 78.130 C 304.574 78.304,304.706 78.638,304.706 78.871 C 304.706 79.104,304.812 79.294,304.941 79.294 C 305.071 79.294,305.185 79.532,305.195 79.824 C 305.205 80.115,305.268 80.217,305.335 80.050 C 305.480 79.689,304.815 78.206,304.405 77.975 C 304.189 77.853,304.190 77.892,304.412 78.130 M285.882 83.044 C 284.786 83.643,283.501 83.765,278.291 83.765 C 274.840 83.765,272.679 83.854,272.588 84.000 C 272.494 84.152,268.200 84.235,260.475 84.235 C 246.097 84.235,245.264 84.357,245.108 86.480 C 245.031 87.518,246.314 87.811,251.294 87.891 L 255.412 87.957 251.701 87.759 C 246.838 87.499,245.412 87.212,245.412 86.490 C 245.412 84.653,246.798 84.471,260.735 84.471 C 268.443 84.471,272.730 84.387,272.824 84.235 C 272.914 84.089,275.135 84.000,278.706 84.000 C 282.277 84.000,284.498 83.911,284.588 83.765 C 284.668 83.635,284.966 83.526,285.249 83.521 C 285.533 83.516,286.029 83.361,286.353 83.176 C 286.964 82.827,286.513 82.700,285.882 83.044 M309.262 83.178 C 309.633 83.371,310.130 83.529,310.366 83.529 C 310.602 83.529,310.861 83.635,310.941 83.765 C 311.021 83.894,311.980 84.000,313.073 84.000 C 314.240 84.000,315.059 84.097,315.059 84.235 C 315.059 84.384,316.299 84.452,318.412 84.419 L 321.765 84.368 318.593 84.294 C 316.848 84.254,315.318 84.118,315.193 83.993 C 315.067 83.867,314.092 83.765,313.026 83.765 C 311.959 83.765,311.021 83.659,310.941 83.529 C 310.861 83.400,310.544 83.294,310.235 83.294 C 309.927 83.294,309.609 83.188,309.529 83.059 C 309.449 82.929,309.205 82.824,308.986 82.825 C 308.734 82.826,308.836 82.956,309.262 83.178 M327.588 85.313 C 328.835 86.794,327.925 87.277,323.871 87.287 C 322.052 87.291,320.463 87.396,320.339 87.520 C 320.214 87.645,319.055 87.781,317.762 87.824 L 315.412 87.902 317.810 87.951 C 319.210 87.980,320.268 87.902,320.353 87.765 C 320.439 87.626,321.848 87.529,323.787 87.529 C 327.997 87.529,329.411 86.715,327.706 85.272 C 327.177 84.824,327.177 84.824,327.588 85.313 M273.412 88.260 C 281.401 88.412,283.405 88.550,283.662 88.966 C 283.734 89.082,283.995 89.176,284.242 89.176 C 284.660 89.176,286.318 89.984,286.592 90.321 C 286.659 90.403,287.082 90.788,287.533 91.175 C 288.341 91.869,288.340 91.865,287.447 90.906 C 286.949 90.370,286.049 89.698,285.447 89.411 C 284.845 89.124,284.169 88.795,283.944 88.680 C 283.720 88.565,283.170 88.471,282.723 88.471 C 282.276 88.471,281.845 88.365,281.765 88.235 C 281.671 88.084,278.702 88.019,273.457 88.053 L 265.294 88.106 273.412 88.260 M308.812 88.688 C 308.689 88.807,308.271 88.950,307.882 89.005 L 307.176 89.106 307.912 89.141 C 308.318 89.161,308.780 89.018,308.941 88.824 C 309.262 88.437,309.169 88.340,308.812 88.688 M306.235 89.647 C 306.155 89.776,305.901 89.882,305.669 89.882 C 305.056 89.882,303.909 90.504,303.393 91.116 L 302.945 91.647 303.531 91.176 C 304.388 90.489,305.112 90.118,305.597 90.118 C 305.832 90.118,306.124 90.022,306.247 89.905 C 306.370 89.788,306.682 89.642,306.941 89.580 C 307.376 89.475,307.373 89.464,306.896 89.439 C 306.613 89.424,306.315 89.518,306.235 89.647 M301.437 92.355 C 300.869 92.807,300.499 93.172,300.614 93.168 C 300.833 93.158,302.794 91.537,302.588 91.535 C 302.524 91.535,302.006 91.904,301.437 92.355 M288.997 93.353 C 289.809 94.844,290.151 101.238,289.456 101.933 C 289.302 102.086,289.176 102.540,289.176 102.941 C 289.176 103.342,289.062 103.785,288.921 103.926 C 288.781 104.066,288.714 104.431,288.772 104.738 C 288.870 105.259,288.879 105.254,288.909 104.661 C 288.927 104.313,289.047 103.962,289.176 103.882 C 289.306 103.802,289.412 103.394,289.412 102.974 C 289.412 102.555,289.544 102.079,289.706 101.918 C 290.139 101.484,290.112 95.129,289.673 94.212 C 288.772 92.332,288.586 92.000,288.430 92.000 C 288.337 92.000,288.592 92.609,288.997 93.353 M295.313 98.787 C 295.302 98.961,295.071 99.417,294.798 99.801 C 294.525 100.184,294.353 100.549,294.416 100.612 C 294.597 100.793,295.561 99.028,295.440 98.735 C 295.373 98.572,295.324 98.592,295.313 98.787 M293.195 103.221 C 293.185 103.505,293.071 103.802,292.941 103.882 C 292.812 103.962,292.724 104.524,292.745 105.132 C 292.785 106.223,292.786 106.225,292.869 105.294 C 292.916 104.776,293.069 104.125,293.210 103.847 C 293.351 103.568,293.410 103.198,293.340 103.023 C 293.267 102.840,293.206 102.925,293.195 103.221 " stroke="none" fill="#b38e97" fill-rule="evenodd"></path><path id="path3" d="M258.286 26.028 C 257.833 26.481,258.820 26.591,263.207 26.578 C 266.842 26.567,268.008 26.494,267.937 26.282 C 267.836 25.976,258.581 25.733,258.286 26.028 M255.202 26.490 C 254.989 27.045,255.002 27.059,255.749 27.059 C 256.672 27.059,257.711 26.647,257.530 26.353 C 257.282 25.953,255.364 26.066,255.202 26.490 M268.706 26.456 C 268.706 26.676,269.071 26.849,269.748 26.951 C 270.972 27.134,271.455 26.947,271.041 26.450 C 270.661 25.992,268.706 25.997,268.706 26.456 M252.892 26.853 C 252.844 26.998,252.394 27.184,251.892 27.265 C 250.871 27.431,250.447 28.000,251.345 28.000 C 251.654 28.000,252.006 27.901,252.129 27.780 C 252.252 27.660,252.776 27.527,253.292 27.486 C 254.484 27.392,254.835 26.588,253.684 26.588 C 253.297 26.588,252.941 26.707,252.892 26.853 M271.808 27.000 C 271.867 27.310,272.162 27.429,273.002 27.483 C 273.616 27.523,274.118 27.655,274.118 27.778 C 274.118 27.900,274.391 28.000,274.725 28.000 C 275.663 28.000,275.280 27.437,274.226 27.265 C 273.724 27.184,273.274 26.998,273.225 26.853 C 273.069 26.385,271.718 26.525,271.808 27.000 M249.294 28.000 C 249.214 28.129,248.902 28.235,248.600 28.235 C 248.297 28.235,247.984 28.409,247.902 28.622 C 247.672 29.220,247.950 29.308,248.691 28.870 C 249.062 28.650,249.589 28.471,249.860 28.471 C 250.141 28.471,250.353 28.319,250.353 28.118 C 250.353 27.724,249.522 27.632,249.294 28.000 M275.765 28.118 C 275.765 28.336,275.986 28.471,276.346 28.471 C 276.765 28.471,276.889 28.373,276.791 28.118 C 276.716 27.924,276.455 27.765,276.210 27.765 C 275.965 27.765,275.765 27.924,275.765 28.118 M277.311 28.444 C 277.118 28.755,277.822 29.250,278.232 29.093 C 278.428 29.017,278.588 29.038,278.588 29.139 C 278.588 29.239,279.038 29.511,279.588 29.742 C 280.894 30.291,282.748 31.205,283.698 31.768 C 284.138 32.029,284.513 32.122,284.594 31.991 C 284.786 31.680,284.514 31.294,284.104 31.294 C 283.917 31.294,283.765 31.188,283.765 31.059 C 283.765 30.929,283.553 30.824,283.294 30.824 C 283.035 30.824,282.824 30.718,282.824 30.588 C 282.824 30.459,282.559 30.353,282.235 30.353 C 281.912 30.353,281.647 30.247,281.647 30.118 C 281.647 29.988,281.435 29.882,281.176 29.882 C 280.915 29.882,280.706 29.725,280.706 29.529 C 280.706 29.310,280.484 29.176,280.118 29.176 C 279.794 29.176,279.529 29.058,279.529 28.914 C 279.529 28.766,279.321 28.705,279.055 28.775 C 278.794 28.843,278.431 28.750,278.248 28.567 C 277.869 28.188,277.499 28.140,277.311 28.444 M246.588 28.941 C 246.588 29.071,246.385 29.176,246.137 29.176 C 245.889 29.176,245.651 29.262,245.608 29.367 C 245.506 29.615,243.059 30.824,242.660 30.824 C 242.491 30.824,242.353 30.929,242.353 31.059 C 242.353 31.188,242.189 31.294,241.990 31.294 C 241.790 31.294,241.340 31.561,240.990 31.887 C 240.639 32.213,240.062 32.610,239.706 32.768 C 239.350 32.926,239.059 33.136,239.059 33.234 C 239.059 33.332,238.900 33.412,238.706 33.412 C 238.512 33.412,238.353 33.518,238.353 33.647 C 238.353 33.776,238.194 33.882,238.000 33.882 C 237.806 33.882,237.647 33.988,237.647 34.118 C 237.647 34.247,237.546 34.353,237.423 34.353 C 237.300 34.353,236.839 34.724,236.399 35.176 C 235.959 35.629,235.504 36.002,235.388 36.005 C 235.272 36.008,234.860 36.378,234.473 36.829 C 234.086 37.279,233.690 37.647,233.593 37.647 C 233.338 37.647,232.471 38.423,232.471 38.651 C 232.471 38.758,232.232 39.093,231.941 39.395 C 231.650 39.698,231.094 40.326,230.706 40.791 C 230.318 41.256,229.868 41.639,229.706 41.642 C 229.544 41.645,229.412 41.860,229.412 42.120 C 229.412 42.380,229.094 42.925,228.706 43.331 C 228.318 43.737,228.000 44.213,228.000 44.388 C 228.000 44.563,227.835 44.706,227.633 44.706 C 227.431 44.706,227.327 44.803,227.400 44.922 C 227.474 45.041,227.374 45.298,227.179 45.494 C 226.983 45.689,226.824 45.962,226.824 46.101 C 226.824 46.239,226.718 46.353,226.588 46.353 C 226.459 46.353,226.353 46.565,226.353 46.824 C 226.353 47.082,226.274 47.295,226.176 47.295 C 226.079 47.295,225.804 47.772,225.565 48.353 C 225.326 48.935,225.035 49.352,224.918 49.280 C 224.801 49.208,224.706 49.473,224.706 49.868 C 224.706 50.264,224.600 50.588,224.471 50.588 C 224.341 50.588,224.235 50.800,224.235 51.059 C 224.235 51.318,224.129 51.529,224.000 51.529 C 223.871 51.529,223.765 51.741,223.765 52.000 C 223.765 52.259,223.659 52.471,223.529 52.471 C 223.400 52.471,223.286 52.868,223.276 53.353 C 223.265 53.838,223.204 54.103,223.138 53.941 C 223.073 53.779,222.870 53.647,222.686 53.647 C 222.503 53.647,222.353 53.554,222.353 53.439 C 222.353 53.325,222.131 53.173,221.859 53.102 C 221.587 53.031,221.434 52.860,221.520 52.722 C 221.614 52.569,221.440 52.471,221.073 52.471 C 220.742 52.471,220.471 52.365,220.471 52.235 C 220.471 52.106,220.206 52.000,219.882 52.000 C 219.559 52.000,219.294 51.894,219.294 51.765 C 219.294 51.635,218.976 51.529,218.588 51.529 C 218.200 51.529,217.882 51.424,217.882 51.294 C 217.882 51.165,217.618 51.059,217.294 51.059 C 216.928 51.059,216.706 51.192,216.706 51.412 C 216.706 51.632,216.928 51.765,217.297 51.765 C 217.623 51.765,218.073 51.865,218.297 51.988 C 218.522 52.111,219.394 52.531,220.235 52.922 C 221.076 53.313,222.082 53.847,222.471 54.108 L 223.176 54.582 223.583 54.056 C 223.807 53.766,223.992 53.453,223.995 53.359 C 224.006 52.978,226.463 47.840,227.389 46.258 C 227.937 45.322,230.327 42.022,231.125 41.098 C 232.784 39.179,236.331 35.765,236.667 35.765 C 236.796 35.765,236.937 35.675,236.980 35.566 C 237.077 35.322,239.894 33.176,240.118 33.176 C 240.207 33.176,240.561 32.977,240.905 32.733 C 242.388 31.680,245.576 30.051,247.118 29.558 C 247.687 29.376,247.640 28.706,247.059 28.706 C 246.800 28.706,246.588 28.812,246.588 28.941 M284.941 32.235 C 284.941 32.494,285.060 32.706,285.205 32.706 C 285.490 32.706,288.284 34.636,289.059 35.368 C 289.318 35.613,289.898 36.093,290.349 36.436 C 293.327 38.700,297.752 44.183,299.777 48.118 C 300.244 49.024,300.737 49.976,300.873 50.235 C 301.112 50.689,301.421 51.412,301.851 52.529 C 301.963 52.821,302.162 53.324,302.292 53.647 C 302.484 54.121,303.148 56.230,303.919 58.810 C 304.051 59.254,303.497 61.412,303.250 61.412 C 303.145 61.412,303.059 61.531,303.059 61.676 C 303.059 61.870,303.143 61.870,303.373 61.679 C 303.857 61.277,304.619 57.647,304.220 57.647 C 304.099 57.647,304.000 57.276,304.000 56.824 C 304.000 56.371,303.894 56.000,303.765 56.000 C 303.635 56.000,303.529 55.576,303.529 55.059 C 303.529 54.541,303.424 54.118,303.294 54.118 C 303.165 54.118,303.059 53.847,303.059 53.516 C 303.059 53.174,302.957 52.976,302.824 53.059 C 302.609 53.191,302.567 53.060,302.493 52.019 C 302.479 51.836,302.337 51.642,302.175 51.588 C 302.014 51.534,301.882 51.287,301.882 51.039 C 301.882 50.791,301.776 50.588,301.647 50.588 C 301.518 50.588,301.412 50.324,301.412 50.000 C 301.412 49.676,301.306 49.412,301.176 49.412 C 301.047 49.412,300.941 49.200,300.941 48.941 C 300.941 48.682,300.835 48.471,300.706 48.471 C 300.576 48.471,300.471 48.206,300.471 47.882 C 300.471 47.527,300.336 47.294,300.131 47.294 C 299.918 47.294,299.826 47.119,299.882 46.824 C 299.932 46.565,299.858 46.353,299.718 46.353 C 299.385 46.353,298.841 45.627,298.831 45.170 C 298.827 44.972,298.612 44.657,298.353 44.471 C 298.094 44.284,297.882 43.943,297.882 43.713 C 297.882 43.483,297.750 43.293,297.588 43.291 C 297.347 43.289,296.235 41.871,296.235 41.566 C 296.235 41.518,295.441 40.672,294.471 39.685 C 293.500 38.699,292.706 37.784,292.706 37.652 C 292.706 37.520,292.574 37.438,292.412 37.471 C 292.250 37.503,292.144 37.397,292.176 37.235 C 292.209 37.074,292.125 36.941,291.989 36.941 C 291.854 36.941,291.497 36.703,291.195 36.412 C 290.893 36.121,290.320 35.605,289.921 35.265 C 289.522 34.925,289.262 34.581,289.343 34.500 C 289.424 34.419,289.261 34.353,288.980 34.353 C 288.700 34.353,288.471 34.247,288.471 34.118 C 288.471 33.988,288.312 33.882,288.118 33.882 C 287.924 33.882,287.765 33.776,287.765 33.647 C 287.765 33.518,287.606 33.412,287.412 33.412 C 287.218 33.412,287.059 33.306,287.059 33.176 C 287.059 33.047,286.900 32.941,286.706 32.941 C 286.512 32.941,286.353 32.835,286.353 32.706 C 286.353 32.576,286.191 32.471,285.993 32.471 C 285.794 32.471,285.571 32.312,285.497 32.118 C 285.301 31.608,284.941 31.684,284.941 32.235 M208.157 50.745 C 207.768 51.134,208.092 51.294,209.265 51.294 C 210.103 51.294,210.630 51.175,210.824 50.941 C 211.131 50.570,208.524 50.378,208.157 50.745 M213.234 50.882 C 213.295 51.066,213.893 51.203,214.822 51.248 C 216.147 51.311,216.280 51.278,216.010 50.953 C 215.624 50.488,213.083 50.423,213.234 50.882 M206.235 51.294 C 206.155 51.424,205.831 51.529,205.516 51.529 C 205.200 51.529,204.941 51.635,204.941 51.765 C 204.941 51.894,204.624 52.000,204.235 52.000 C 203.847 52.000,203.529 52.106,203.529 52.235 C 203.529 52.365,203.318 52.471,203.059 52.471 C 202.800 52.471,202.588 52.604,202.588 52.766 C 202.588 52.929,202.244 53.212,201.824 53.395 C 201.403 53.579,200.888 53.922,200.678 54.159 C 200.469 54.395,200.176 54.588,200.028 54.588 C 199.629 54.588,196.706 57.613,196.706 58.026 C 196.706 58.234,196.594 58.311,196.434 58.213 C 196.265 58.108,196.226 58.148,196.331 58.318 C 196.426 58.471,196.338 58.654,196.133 58.733 C 195.930 58.810,195.765 59.026,195.765 59.211 C 195.765 59.397,195.553 59.776,195.294 60.054 C 195.035 60.332,194.824 60.751,194.824 60.986 C 194.824 61.220,194.668 61.412,194.478 61.412 C 194.267 61.412,194.185 61.550,194.269 61.767 C 194.343 61.962,194.234 62.381,194.026 62.699 C 193.818 63.017,193.647 63.525,193.647 63.827 C 193.647 64.129,193.552 64.477,193.436 64.600 C 192.932 65.133,192.486 71.875,192.926 72.314 C 193.533 72.921,193.220 73.882,192.412 73.890 C 191.991 73.894,191.435 74.058,191.176 74.254 C 190.743 74.584,190.825 74.606,192.235 74.541 C 193.715 74.473,193.762 74.452,193.686 73.882 C 193.448 72.095,193.551 65.885,193.824 65.612 C 193.985 65.450,194.118 64.974,194.118 64.555 C 194.118 64.136,194.224 63.727,194.353 63.647 C 194.482 63.567,194.588 63.338,194.588 63.138 C 194.588 61.372,200.595 53.882,202.012 53.882 C 202.200 53.882,202.353 53.802,202.353 53.704 C 202.353 53.607,202.644 53.402,203.000 53.249 C 203.356 53.096,204.269 52.699,205.029 52.368 C 205.789 52.036,206.610 51.765,206.853 51.765 C 207.096 51.765,207.294 51.606,207.294 51.412 C 207.294 51.018,206.463 50.926,206.235 51.294 M306.647 62.525 C 306.485 62.870,306.353 63.428,306.353 63.765 C 306.353 64.101,306.221 64.525,306.059 64.706 C 305.809 64.987,305.826 64.990,306.176 64.725 C 306.417 64.543,306.588 64.102,306.588 63.665 C 306.588 63.254,306.706 62.800,306.850 62.656 C 306.994 62.512,307.073 62.282,307.026 62.146 C 306.980 62.009,306.809 62.180,306.647 62.525 M301.224 66.635 C 301.068 66.791,300.941 67.155,300.941 67.445 C 300.941 67.735,300.835 68.038,300.706 68.118 C 300.576 68.198,300.471 68.383,300.471 68.529 C 300.471 68.676,300.626 68.590,300.816 68.339 C 301.006 68.088,301.165 67.665,301.169 67.400 C 301.173 67.135,301.304 66.791,301.459 66.635 C 301.614 66.480,301.688 66.353,301.624 66.353 C 301.559 66.353,301.379 66.480,301.224 66.635 M304.512 70.344 C 304.342 70.729,304.247 71.338,304.301 71.698 C 304.387 72.265,304.405 72.241,304.435 71.518 C 304.455 71.058,304.588 70.565,304.732 70.421 C 304.876 70.277,304.955 70.043,304.908 69.901 C 304.861 69.759,304.683 69.959,304.512 70.344 M303.810 74.280 C 303.785 75.211,303.871 76.038,304.000 76.118 C 304.129 76.198,304.251 76.654,304.271 77.132 C 304.302 77.902,304.317 77.922,304.408 77.315 C 304.463 76.938,304.396 76.408,304.258 76.138 C 304.120 75.868,303.973 74.959,303.931 74.118 L 303.855 72.588 303.810 74.280 M188.458 74.721 C 188.187 75.048,188.269 75.081,189.175 75.016 C 189.738 74.975,190.242 74.809,190.295 74.647 C 190.440 74.208,188.830 74.273,188.458 74.721 M186.588 75.059 C 186.588 75.188,186.211 75.294,185.751 75.294 C 185.252 75.294,184.972 75.389,185.059 75.529 C 185.143 75.666,184.913 75.765,184.510 75.765 C 184.109 75.765,183.758 75.914,183.680 76.118 C 183.605 76.312,183.403 76.471,183.231 76.471 C 182.792 76.471,181.651 77.022,181.649 77.235 C 181.648 77.332,181.435 77.412,181.176 77.412 C 180.918 77.412,180.706 77.492,180.706 77.590 C 180.706 77.687,180.415 77.897,180.059 78.055 C 179.703 78.214,179.125 78.610,178.775 78.936 C 178.425 79.263,178.051 79.529,177.945 79.529 C 177.838 79.529,177.598 79.741,177.412 80.000 C 177.225 80.259,176.964 80.475,176.830 80.481 C 176.697 80.487,176.112 80.963,175.529 81.538 C 174.947 82.114,174.391 82.585,174.294 82.586 C 174.197 82.587,174.118 82.763,174.118 82.976 C 174.118 83.190,173.747 83.724,173.294 84.164 C 172.841 84.604,172.471 85.065,172.471 85.188 C 172.471 85.311,172.365 85.412,172.235 85.412 C 172.106 85.412,172.000 85.571,172.000 85.765 C 172.000 85.959,171.906 86.118,171.790 86.118 C 171.675 86.118,171.513 86.387,171.430 86.716 C 171.348 87.044,171.179 87.251,171.055 87.174 C 170.929 87.096,170.891 87.196,170.969 87.400 C 171.060 87.636,170.976 87.765,170.731 87.765 C 170.523 87.765,170.353 87.925,170.353 88.121 C 170.353 88.317,170.231 88.714,170.081 89.003 C 169.495 90.136,169.412 90.363,169.412 90.820 C 169.412 91.081,169.313 91.294,169.192 91.294 C 169.071 91.294,168.939 91.585,168.898 91.941 C 168.856 92.305,168.695 92.562,168.529 92.529 C 168.331 92.490,168.235 92.798,168.235 93.482 C 168.235 94.039,168.109 94.620,167.956 94.774 C 167.637 95.092,167.364 103.866,167.628 105.276 C 167.775 106.059,168.706 106.583,168.706 105.882 C 168.706 105.753,168.610 105.647,168.493 105.647 C 167.745 105.647,168.199 94.224,168.966 93.749 C 169.082 93.678,169.176 93.359,169.176 93.042 C 169.176 92.724,169.270 92.280,169.384 92.056 C 169.499 91.831,169.723 91.329,169.882 90.941 C 170.042 90.553,170.264 90.076,170.376 89.882 C 170.488 89.688,170.794 89.106,171.055 88.588 C 172.987 84.761,176.200 81.285,180.170 78.727 C 181.492 77.874,182.685 77.176,182.820 77.176 C 182.955 77.176,183.249 77.083,183.474 76.969 C 183.698 76.854,184.174 76.643,184.529 76.498 C 184.885 76.354,185.415 76.136,185.706 76.014 C 185.997 75.892,186.579 75.725,187.000 75.642 C 187.910 75.463,188.048 74.824,187.176 74.824 C 186.853 74.824,186.588 74.929,186.588 75.059 M294.937 77.235 L 292.588 79.647 295.000 77.299 C 297.240 75.117,297.519 74.824,297.349 74.824 C 297.314 74.824,296.228 75.909,294.937 77.235 M305.882 80.544 C 305.882 80.585,306.226 80.929,306.647 81.309 L 307.412 82.000 306.721 81.235 C 306.077 80.522,305.882 80.362,305.882 80.544 M287.412 82.353 C 287.332 82.482,287.014 82.588,286.706 82.588 C 286.398 82.588,286.088 82.682,286.017 82.796 C 285.946 82.911,285.596 83.062,285.238 83.133 C 283.948 83.389,282.951 83.717,283.395 83.741 C 283.870 83.766,285.238 83.383,285.938 83.030 C 286.163 82.916,286.533 82.820,286.762 82.816 C 287.212 82.808,288.262 82.118,287.824 82.118 C 287.677 82.118,287.492 82.224,287.412 82.353 M267.412 84.000 L 262.235 84.132 267.339 84.183 C 270.545 84.216,272.497 84.148,272.588 84.000 C 272.668 83.871,272.701 83.788,272.661 83.817 C 272.621 83.845,270.259 83.928,267.412 84.000 M246.706 84.471 C 246.106 84.728,246.725 84.728,247.529 84.471 C 248.002 84.319,248.025 84.281,247.647 84.275 C 247.388 84.271,246.965 84.359,246.706 84.471 M322.176 84.404 C 322.532 84.458,323.115 84.458,323.471 84.404 C 323.826 84.350,323.535 84.306,322.824 84.306 C 322.112 84.306,321.821 84.350,322.176 84.404 M245.428 85.277 C 245.132 85.592,244.947 85.989,245.015 86.160 C 245.111 86.401,245.143 86.395,245.158 86.133 C 245.168 85.947,245.407 85.550,245.688 85.250 C 245.969 84.951,246.147 84.706,246.082 84.706 C 246.017 84.706,245.723 84.963,245.428 85.277 M326.588 84.880 C 327.041 84.934,327.624 85.155,327.882 85.371 C 328.349 85.762,328.349 85.761,327.905 85.235 C 327.577 84.849,327.229 84.716,326.611 84.744 L 325.765 84.781 326.588 84.880 M320.353 87.765 C 320.265 87.907,318.551 88.000,316.000 88.000 C 313.449 88.000,311.735 88.093,311.647 88.235 C 311.567 88.365,310.991 88.471,310.368 88.471 C 309.564 88.471,309.144 88.590,308.923 88.882 C 308.657 89.233,308.660 89.250,308.941 89.000 C 309.122 88.838,309.773 88.706,310.386 88.706 C 311.000 88.706,311.567 88.600,311.647 88.471 C 311.735 88.328,313.444 88.235,315.985 88.235 C 319.425 88.235,320.230 88.172,320.471 87.882 C 320.632 87.688,320.704 87.529,320.631 87.529 C 320.558 87.529,320.433 87.635,320.353 87.765 M321.235 87.692 C 321.462 87.751,321.832 87.751,322.059 87.692 C 322.285 87.632,322.100 87.584,321.647 87.584 C 321.194 87.584,321.009 87.632,321.235 87.692 M247.572 88.035 C 247.872 88.120,252.035 88.179,256.824 88.167 C 261.612 88.156,264.947 88.115,264.235 88.077 C 261.447 87.927,247.057 87.891,247.572 88.035 M276.118 88.384 C 277.725 88.552,281.819 88.575,281.567 88.415 C 281.417 88.320,279.971 88.258,278.353 88.277 C 276.735 88.295,275.729 88.344,276.118 88.384 M304.525 90.459 C 303.764 90.879,303.642 91.047,304.204 90.900 C 304.472 90.830,304.813 90.625,304.962 90.445 C 305.280 90.063,305.239 90.064,304.525 90.459 M286.824 90.662 C 286.824 90.702,287.168 91.046,287.588 91.427 L 288.353 92.118 287.662 91.353 C 287.018 90.640,286.824 90.480,286.824 90.662 M298.346 95.235 L 296.824 96.824 298.412 95.301 C 299.285 94.463,300.000 93.749,300.000 93.713 C 300.000 93.539,299.760 93.760,298.346 95.235 M289.726 97.882 C 289.726 98.853,289.768 99.250,289.818 98.765 C 289.869 98.279,289.869 97.485,289.818 97.000 C 289.768 96.515,289.726 96.912,289.726 97.882 " stroke="none" fill="#7d4767" fill-rule="evenodd"></path><path id="path4" d="M257.530 26.353 C 257.610 26.483,257.397 26.695,257.058 26.824 C 256.261 27.127,255.059 27.127,255.059 26.824 C 255.059 26.387,254.409 26.584,254.285 27.059 C 254.187 27.431,253.964 27.529,253.212 27.529 C 252.690 27.529,252.190 27.647,252.102 27.791 C 252.007 27.944,251.611 27.998,251.147 27.923 C 250.554 27.827,250.353 27.880,250.353 28.132 C 250.353 28.319,250.132 28.471,249.860 28.471 C 249.589 28.471,249.055 28.655,248.673 28.880 C 248.066 29.239,247.953 29.246,247.758 28.939 C 247.571 28.643,247.536 28.654,247.533 29.007 C 247.531 29.238,247.344 29.486,247.118 29.558 C 245.576 30.051,242.388 31.680,240.905 32.733 C 240.561 32.977,240.207 33.176,240.118 33.176 C 239.894 33.176,237.077 35.322,236.980 35.566 C 236.937 35.675,236.796 35.765,236.667 35.765 C 236.331 35.765,232.784 39.179,231.125 41.098 C 230.327 42.022,227.937 45.322,227.389 46.258 C 226.463 47.840,224.006 52.978,223.995 53.359 C 223.992 53.453,223.807 53.766,223.583 54.056 L 223.176 54.582 222.471 54.108 C 222.082 53.847,221.076 53.313,220.235 52.922 C 219.394 52.531,218.522 52.111,218.297 51.988 C 218.073 51.865,217.623 51.765,217.297 51.765 C 216.972 51.765,216.706 51.629,216.706 51.463 C 216.706 51.237,216.291 51.185,215.062 51.254 C 213.710 51.330,213.391 51.279,213.272 50.968 C 213.071 50.445,211.234 50.446,210.800 50.969 C 210.547 51.275,210.169 51.327,208.889 51.236 C 207.642 51.147,207.294 51.192,207.294 51.443 C 207.294 51.620,207.096 51.765,206.853 51.765 C 206.610 51.765,205.789 52.036,205.029 52.368 C 204.269 52.699,203.356 53.096,203.000 53.249 C 202.644 53.402,202.353 53.607,202.353 53.704 C 202.353 53.802,202.200 53.882,202.012 53.882 C 200.595 53.882,194.588 61.372,194.588 63.138 C 194.588 63.338,194.482 63.567,194.353 63.647 C 194.224 63.727,194.118 64.136,194.118 64.555 C 194.118 64.974,193.985 65.450,193.824 65.612 C 193.551 65.885,193.448 72.095,193.686 73.882 C 193.763 74.461,193.739 74.471,192.118 74.471 C 190.987 74.471,190.390 74.574,190.213 74.799 C 190.030 75.033,189.638 75.092,188.860 75.005 C 188.056 74.914,187.765 74.962,187.765 75.187 C 187.765 75.355,187.421 75.560,187.000 75.642 C 186.579 75.725,185.971 75.906,185.647 76.045 C 185.324 76.184,184.794 76.402,184.471 76.530 C 184.147 76.657,183.698 76.854,183.474 76.969 C 183.249 77.083,182.955 77.176,182.820 77.176 C 182.685 77.176,181.492 77.874,180.170 78.727 C 176.200 81.285,172.987 84.761,171.055 88.588 C 170.794 89.106,170.488 89.688,170.376 89.882 C 170.264 90.076,170.042 90.553,169.882 90.941 C 169.723 91.329,169.499 91.831,169.384 92.056 C 169.270 92.280,169.176 92.724,169.176 93.042 C 169.176 93.359,169.082 93.678,168.966 93.749 C 168.114 94.276,167.779 104.989,168.590 105.800 C 169.147 106.357,287.537 106.264,288.007 105.706 C 288.197 105.479,288.319 105.056,288.278 104.765 C 288.236 104.474,288.316 104.235,288.454 104.235 C 288.593 104.235,288.713 103.785,288.722 103.235 C 288.735 102.461,288.785 102.341,288.941 102.706 C 289.122 103.126,289.145 103.109,289.160 102.543 C 289.169 102.195,289.282 101.845,289.412 101.765 C 289.552 101.678,289.647 100.198,289.647 98.118 C 289.647 96.037,289.552 94.557,289.412 94.471 C 289.282 94.391,289.175 94.093,289.173 93.810 C 289.170 93.391,289.127 93.360,288.941 93.647 C 288.757 93.932,288.712 93.899,288.709 93.471 C 288.708 93.179,288.595 92.941,288.460 92.941 C 288.325 92.941,288.246 92.756,288.284 92.529 C 288.322 92.299,288.223 92.144,288.059 92.176 C 287.897 92.209,287.765 92.131,287.765 92.003 C 287.765 91.598,286.986 90.842,286.723 90.991 C 286.584 91.070,286.549 91.048,286.645 90.942 C 286.924 90.633,286.347 90.118,285.722 90.118 C 285.400 90.118,285.212 90.015,285.294 89.882 C 285.378 89.747,285.159 89.646,284.779 89.643 C 284.265 89.641,284.197 89.589,284.471 89.412 C 284.827 89.181,284.123 89.065,282.941 89.160 C 282.575 89.189,282.543 89.148,282.800 88.975 C 283.382 88.581,280.165 88.478,264.000 88.373 C 245.727 88.254,244.439 88.112,244.886 86.268 C 245.339 84.398,246.077 84.244,254.875 84.182 L 262.471 84.129 255.882 83.982 C 250.392 83.859,250.873 83.847,258.776 83.905 C 269.598 83.985,283.522 83.750,282.471 83.506 C 281.932 83.381,282.073 83.344,283.065 83.353 C 283.781 83.358,284.575 83.249,284.830 83.109 C 285.085 82.969,285.951 82.670,286.753 82.445 C 287.556 82.220,288.154 81.941,288.083 81.826 C 288.011 81.710,288.096 81.635,288.271 81.659 C 289.082 81.771,289.539 81.646,289.176 81.412 C 288.902 81.235,288.971 81.183,289.484 81.180 C 289.864 81.178,290.084 81.076,290.000 80.941 C 289.919 80.811,290.093 80.706,290.390 80.706 C 290.685 80.706,291.168 80.425,291.463 80.081 C 291.758 79.737,292.002 79.552,292.004 79.669 C 292.006 79.786,292.108 79.724,292.230 79.529 C 292.353 79.335,292.590 79.172,292.756 79.166 C 292.923 79.160,293.032 79.028,293.000 78.872 C 292.968 78.716,293.074 78.615,293.235 78.647 C 293.397 78.679,293.500 78.566,293.465 78.394 C 293.429 78.223,293.490 78.138,293.600 78.206 C 293.848 78.359,296.767 75.449,296.595 75.222 C 296.527 75.132,296.540 75.111,296.625 75.174 C 296.869 75.356,297.412 74.807,297.412 74.380 C 297.412 74.168,297.676 73.795,298.000 73.552 C 298.324 73.309,298.588 72.914,298.588 72.673 C 298.588 72.432,298.694 72.235,298.824 72.235 C 298.953 72.235,299.060 71.997,299.062 71.706 C 299.065 71.278,299.110 71.244,299.294 71.529 C 299.489 71.830,299.523 71.821,299.526 71.467 C 299.528 71.239,299.623 70.869,299.737 70.644 C 300.156 69.820,300.438 69.024,300.858 67.471 C 301.095 66.597,301.369 65.882,301.468 65.882 C 301.566 65.882,301.649 65.538,301.651 65.118 C 301.653 64.537,301.709 64.438,301.882 64.706 C 302.052 64.968,302.116 64.816,302.131 64.118 C 302.146 63.375,302.193 63.276,302.353 63.647 C 302.534 64.069,302.557 64.052,302.572 63.490 C 302.581 63.145,302.721 62.809,302.882 62.743 C 303.104 62.654,303.089 62.562,302.824 62.374 C 302.584 62.205,302.565 62.124,302.765 62.121 C 302.926 62.119,303.059 61.985,303.060 61.824 C 303.061 61.662,303.232 61.212,303.441 60.824 C 304.122 59.555,303.593 56.719,301.914 52.647 C 301.767 52.291,301.529 51.709,301.384 51.353 C 301.240 50.997,301.010 50.494,300.873 50.235 C 300.737 49.976,300.244 49.024,299.777 48.118 C 297.752 44.183,293.327 38.700,290.349 36.436 C 289.898 36.093,289.318 35.613,289.059 35.368 C 288.284 34.636,285.490 32.706,285.205 32.706 C 285.060 32.706,284.941 32.481,284.941 32.206 C 284.941 31.840,284.863 31.769,284.647 31.940 C 284.445 32.100,284.132 32.040,283.647 31.747 C 282.765 31.215,280.904 30.295,279.582 29.739 C 278.964 29.479,278.620 29.199,278.691 29.014 C 278.782 28.776,278.713 28.771,278.363 28.989 C 277.892 29.284,277.052 28.863,277.302 28.458 C 277.368 28.351,277.049 28.324,276.594 28.398 C 275.941 28.504,275.765 28.454,275.765 28.163 C 275.765 27.873,275.589 27.823,274.941 27.928 C 274.407 28.015,274.118 27.968,274.118 27.795 C 274.118 27.636,273.684 27.529,273.037 27.529 C 272.154 27.529,271.933 27.443,271.833 27.059 C 271.693 26.525,271.506 26.471,271.124 26.853 C 270.744 27.233,268.706 26.899,268.706 26.456 C 268.706 26.270,268.547 26.118,268.353 26.118 C 268.159 26.118,268.000 26.218,268.000 26.341 C 268.000 26.651,258.428 26.665,258.237 26.355 C 258.156 26.224,257.931 26.118,257.737 26.118 C 257.543 26.118,257.450 26.224,257.530 26.353 M322.886 87.698 C 323.243 87.752,323.773 87.751,324.062 87.695 C 324.351 87.639,324.059 87.595,323.412 87.597 C 322.765 87.598,322.528 87.644,322.886 87.698 " stroke="none" fill="#562875" fill-rule="evenodd"></path></g></svg>